<svg width="720" height="540" viewBox="0 0 720 540" fill="none" xmlns="http://www.w3.org/2000/svg">
  <rect width="720" height="540" rx="36" fill="#16364B"/>
  <rect x="36" y="36" width="648" height="468" rx="32" fill="url(#bg)"/>
  <path d="M98 384C188 340 246 332 332 348C420 364 506 302 600 238" stroke="#FFF1D7" stroke-width="36" stroke-linecap="round"/>
  <path d="M98 384C188 340 246 332 332 348C420 364 506 302 600 238" stroke="#68D76D" stroke-width="24" stroke-linecap="round"/>
  <circle cx="122" cy="386" r="16" fill="#FFF8EE"/>
  <path d="M592 172V242" stroke="#214D5B" stroke-width="8" stroke-linecap="round"/>
  <path d="M592 172L636 186L592 204V172Z" fill="#FF6D7A"/>
  <path d="M112 398L208 350" stroke="#F4D6B2" stroke-width="12" stroke-linecap="round"/>
  <rect x="66" y="68" width="148" height="62" rx="20" fill="#123A40" fill-opacity="0.56"/>
  <text x="94" y="108" fill="#FFF8EE" font-family="Trebuchet MS, sans-serif" font-size="26" font-weight="700">Hole 1</text>
  <defs>
    <linearGradient id="bg" x1="36" y1="36" x2="684" y2="504" gradientUnits="userSpaceOnUse">
      <stop stop-color="#B8F19A"/>
      <stop offset="1" stop-color="#4EBFE8"/>
    </linearGradient>
  </defs>
</svg>
